<svg xmlns="http://www.w3.org/2000/svg" viewBox="0 0 16.86 17.96"><g fill="none" stroke="#fff" transform="translate(-5.12 -4.33)"><path d="M19.2 17.87a6.01 6.01 0 0 0-.84-.97 6.29 6.29 0 0 0-2.4-1.4 6.9 6.9 0 0 0-4.01-.1 6.86 6.86 0 0 0-3.08 1.82 6.04 6.04 0 0 0-.7.93c1.42 1.43 3.36 3.34 5.38 3.34 2.16 0 4.21-2.02 5.66-3.62z"/><path d="M13.55 5.12a7.64 7.64 0 0 0-7.64 7.63 7.64 7.64 0 0 0 2.26 5.4 6.49 5.97 0 0 1 .14-.25 6.49 5.97 0 0 1 .56-.68 6.49 5.97 0 0 1 .65-.6 6.49 5.97 0 0 1 .75-.52 6.49 5.97 0 0 1 .8-.4 6.49 5.97 0 0 1 .88-.3 6.49 5.97 0 0 1 .9-.18 6.49 5.97 0 0 1 .92-.06 6.49 5.97 0 0 1 .32 0 6.49 5.97 0 0 1 .32.02 6.49 5.97 0 0 1 .32.04 6.49 5.97 0 0 1 .3.05 6.49 5.97 0 0 1 .32.07 6.49 5.97 0 0 1 .3.07 6.49 5.97 0 0 1 .31.1 6.49 5.97 0 0 1 .3.1 6.49 5.97 0 0 1 .29.12 6.49 5.97 0 0 1 .28.13 6.49 5.97 0 0 1 .28.15 6.49 5.97 0 0 1 .27.15 6.49 5.97 0 0 1 .26.17 6.49 5.97 0 0 1 .25.18 6.49 5.97 0 0 1 .24.2 6.49 5.97 0 0 1 .23.2 6.49 5.97 0 0 1 .22.2 6.49 5.97 0 0 1 .2.23 6.49 5.97 0 0 1 .2.23 6.49 5.97 0 0 1 .19.24 6.49 5.97 0 0 1 .04.06 7.64 7.64 0 0 0 1.97-5.12 7.64 7.64 0 0 0-7.63-7.63z"/><ellipse cx="13.56" cy="11.19" rx="3" ry="3.25"/></g></svg>